<svg width="25" height="24" viewBox="0 0 25 24" fill="none" xmlns="http://www.w3.org/2000/svg">
<path d="M10.5 8.50224C10.6762 8.00136 11.024 7.579 11.4817 7.30998C11.9395 7.04095 12.4777 6.9426 13.001 7.03237C13.5243 7.12213 13.999 7.39421 14.3409 7.80041C14.6829 8.20661 14.87 8.72072 14.8692 9.25168C14.8692 10.7506 12.6209 11.5 12.6209 11.5M12.6499 14.5H12.6599M10.4 19.2L11.86 21.1467C12.0771 21.4362 12.1857 21.5809 12.3188 21.6327C12.4353 21.678 12.5647 21.678 12.6812 21.6327C12.8143 21.5809 12.9229 21.4362 13.14 21.1467L14.6 19.2C14.8931 18.8091 15.0397 18.6137 15.2185 18.4645C15.4569 18.2656 15.7383 18.1248 16.0405 18.0535C16.2671 18 16.5114 18 17 18C18.3978 18 19.0967 18 19.6481 17.7716C20.3831 17.4672 20.9672 16.8831 21.2716 16.1481C21.5 15.5967 21.5 14.8978 21.5 13.5V7.8C21.5 6.11984 21.5 5.27976 21.173 4.63803C20.8854 4.07354 20.4265 3.6146 19.862 3.32698C19.2202 3 18.3802 3 16.7 3H8.3C6.61984 3 5.77976 3 5.13803 3.32698C4.57354 3.6146 4.1146 4.07354 3.82698 4.63803C3.5 5.27976 3.5 6.11984 3.5 7.8V13.5C3.5 14.8978 3.5 15.5967 3.72836 16.1481C4.03284 16.8831 4.61687 17.4672 5.35195 17.7716C5.90326 18 6.60218 18 8 18C8.48858 18 8.73287 18 8.95951 18.0535C9.26169 18.1248 9.54312 18.2656 9.7815 18.4645C9.96028 18.6137 10.1069 18.8091 10.4 19.2Z" stroke="#333333" stroke-width="2" stroke-linecap="round" stroke-linejoin="round"/>
</svg>
