<svg width="25" height="24" viewBox="0 0 25 24" fill="none" xmlns="http://www.w3.org/2000/svg">
<path d="M9.3335 12H4.9335C4.37344 12 4.09342 12 3.87951 12.109C3.69134 12.2049 3.53836 12.3578 3.44249 12.546C3.3335 12.7599 3.3335 13.0399 3.3335 13.6V19.4C3.3335 19.9601 3.3335 20.2401 3.44249 20.454C3.53836 20.6422 3.69134 20.7951 3.87951 20.891C4.09342 21 4.37344 21 4.9335 21H9.3335M9.3335 21H15.3335M9.3335 21L9.3335 8.6C9.3335 8.03995 9.3335 7.75992 9.44249 7.54601C9.53836 7.35785 9.69134 7.20487 9.87951 7.10899C10.0934 7 10.3734 7 10.9335 7H13.7335C14.2935 7 14.5736 7 14.7875 7.10899C14.9756 7.20487 15.1286 7.35785 15.2245 7.54601C15.3335 7.75992 15.3335 8.03995 15.3335 8.6V21M15.3335 21H19.7335C20.2935 21 20.5736 21 20.7875 20.891C20.9756 20.7951 21.1286 20.6422 21.2245 20.454C21.3335 20.2401 21.3335 19.9601 21.3335 19.4V4.6C21.3335 4.03995 21.3335 3.75992 21.2245 3.54601C21.1286 3.35785 20.9756 3.20487 20.7875 3.10899C20.5736 3 20.2935 3 19.7335 3H16.9335C16.3734 3 16.0934 3 15.8795 3.10899C15.6913 3.20487 15.5384 3.35785 15.4425 3.54601C15.3335 3.75992 15.3335 4.03995 15.3335 4.6V8" stroke="#303036" stroke-width="2" stroke-linecap="round" stroke-linejoin="round"/>
</svg>
