<svg width="25" height="24" viewBox="0 0 25 24" fill="none" xmlns="http://www.w3.org/2000/svg">
<path d="M12.5002 21L12.4002 20.8499C11.7055 19.808 11.3582 19.287 10.8993 18.9098C10.4931 18.5759 10.025 18.3254 9.52185 18.1726C8.95349 18 8.32735 18 7.07507 18H5.70024C4.58014 18 4.02009 18 3.59226 17.782C3.21594 17.5903 2.90998 17.2843 2.71823 16.908C2.50024 16.4802 2.50024 15.9201 2.50024 14.8V6.2C2.50024 5.07989 2.50024 4.51984 2.71823 4.09202C2.90998 3.71569 3.21594 3.40973 3.59226 3.21799C4.02009 3 4.58014 3 5.70024 3H6.10024C8.34045 3 9.46056 3 10.3162 3.43597C11.0689 3.81947 11.6808 4.43139 12.0643 5.18404C12.5002 6.03968 12.5002 7.15979 12.5002 9.4M12.5002 21V9.4M12.5002 21L12.6003 20.8499C13.2949 19.808 13.6423 19.287 14.1011 18.9098C14.5074 18.5759 14.9755 18.3254 15.4786 18.1726C16.047 18 16.6731 18 17.9254 18H19.3002C20.4203 18 20.9804 18 21.4082 17.782C21.7846 17.5903 22.0905 17.2843 22.2823 16.908C22.5002 16.4802 22.5002 15.9201 22.5002 14.8V6.2C22.5002 5.07989 22.5002 4.51984 22.2823 4.09202C22.0905 3.71569 21.7846 3.40973 21.4082 3.21799C20.9804 3 20.4203 3 19.3002 3H18.9002C16.66 3 15.5399 3 14.6843 3.43597C13.9316 3.81947 13.3197 4.43139 12.9362 5.18404C12.5002 6.03968 12.5002 7.15979 12.5002 9.4" stroke="#333333" stroke-width="2" stroke-linecap="round" stroke-linejoin="round"/>
</svg>
