<svg width="24" height="25" viewBox="0 0 24 25" fill="none" xmlns="http://www.w3.org/2000/svg">
<path d="M17 20.6666H16.8C15.1198 20.6666 14.2798 20.6666 13.638 20.3396C13.0735 20.052 12.6146 19.5931 12.327 19.0286C12 18.3869 12 17.5468 12 15.8666V9.46663C12 7.78647 12 6.94639 12.327 6.30465C12.6146 5.74017 13.0735 5.28123 13.638 4.99361C14.2798 4.66663 15.1198 4.66663 16.8 4.66663H17M17 20.6666C17 21.7712 17.8954 22.6666 19 22.6666C20.1046 22.6666 21 21.7712 21 20.6666C21 19.5621 20.1046 18.6666 19 18.6666C17.8954 18.6666 17 19.5621 17 20.6666ZM17 4.66663C17 5.7712 17.8954 6.66663 19 6.66663C20.1046 6.66663 21 5.7712 21 4.66663C21 3.56206 20.1046 2.66663 19 2.66663C17.8954 2.66663 17 3.56206 17 4.66663ZM7 12.6666L17 12.6666M7 12.6666C7 13.7712 6.10457 14.6666 5 14.6666C3.89543 14.6666 3 13.7712 3 12.6666C3 11.5621 3.89543 10.6666 5 10.6666C6.10457 10.6666 7 11.5621 7 12.6666ZM17 12.6666C17 13.7712 17.8954 14.6666 19 14.6666C20.1046 14.6666 21 13.7712 21 12.6666C21 11.5621 20.1046 10.6666 19 10.6666C17.8954 10.6666 17 11.5621 17 12.6666Z" stroke="#303036" stroke-width="2" stroke-linecap="round" stroke-linejoin="round"/>
</svg>
