<svg width="24" height="24" viewBox="0 0 24 24" fill="none" xmlns="http://www.w3.org/2000/svg">
<path d="M13.9998 2.2699V6.40044C13.9998 6.96049 13.9998 7.24052 14.1087 7.45443C14.2046 7.64259 14.3576 7.79557 14.5458 7.89144C14.7597 8.00044 15.0397 8.00044 15.5998 8.00044H19.7303M13.9998 17.5004L16.4998 15.0004L13.9998 12.5004M9.99976 12.5004L7.49976 15.0004L9.99976 17.5004M19.9998 9.98859V17.2004C19.9998 18.8805 19.9998 19.7206 19.6728 20.3623C19.3852 20.9268 18.9262 21.3858 18.3617 21.6734C17.72 22.0004 16.8799 22.0004 15.1998 22.0004H8.79976C7.1196 22.0004 6.27952 22.0004 5.63778 21.6734C5.0733 21.3858 4.61436 20.9268 4.32674 20.3623C3.99976 19.7206 3.99976 18.8805 3.99976 17.2004V6.80037C3.99976 5.12021 3.99976 4.28013 4.32674 3.63839C4.61436 3.07391 5.0733 2.61497 5.63778 2.32735C6.27952 2.00037 7.1196 2.00037 8.79976 2.00037H12.0115C12.7453 2.00037 13.1122 2.00037 13.4575 2.08326C13.7636 2.15675 14.0562 2.27796 14.3246 2.44245C14.6274 2.62797 14.8868 2.8874 15.4056 3.40625L18.5939 6.59448C19.1127 7.11333 19.3722 7.37276 19.5577 7.67551C19.7222 7.94393 19.8434 8.23656 19.9169 8.54267C19.9998 8.88793 19.9998 9.25482 19.9998 9.98859Z" stroke="#303036" stroke-width="2" stroke-linecap="round" stroke-linejoin="round"/>
</svg>
