<svg width="25" height="24" viewBox="0 0 25 24" fill="none" xmlns="http://www.w3.org/2000/svg">
<path d="M2.66699 5.19976C2.66699 4.07965 2.66699 3.5196 2.88498 3.09177C3.07673 2.71545 3.38269 2.40949 3.75901 2.21774C4.18683 1.99976 4.74689 1.99976 5.86699 1.99976H13.467C14.5871 1.99976 15.1471 1.99976 15.575 2.21774C15.9513 2.40949 16.2573 2.71545 16.449 3.09177C16.667 3.5196 16.667 4.07965 16.667 5.19976V12.7998C16.667 13.9199 16.667 14.4799 16.449 14.9077C16.2573 15.2841 15.9513 15.59 15.575 15.7818C15.1471 15.9998 14.5871 15.9998 13.467 15.9998H5.86699C4.74689 15.9998 4.18683 15.9998 3.75901 15.7818C3.38269 15.59 3.07673 15.2841 2.88498 14.9077C2.66699 14.4799 2.66699 13.9199 2.66699 12.7998V5.19976Z" stroke="#303036" stroke-width="2" stroke-linecap="round" stroke-linejoin="round"/>
<path d="M8.66699 11.1998C8.66699 10.0797 8.66699 9.5196 8.88498 9.09177C9.07673 8.71545 9.38269 8.40949 9.75901 8.21774C10.1868 7.99976 10.7469 7.99976 11.867 7.99976H19.467C20.5871 7.99976 21.1472 7.99976 21.575 8.21774C21.9513 8.40949 22.2573 8.71545 22.449 9.09177C22.667 9.5196 22.667 10.0797 22.667 11.1998V18.7998C22.667 19.9199 22.667 20.4799 22.449 20.9077C22.2573 21.2841 21.9513 21.59 21.575 21.7818C21.1472 21.9998 20.5871 21.9998 19.467 21.9998H11.867C10.7469 21.9998 10.1868 21.9998 9.75901 21.7818C9.38269 21.59 9.07673 21.2841 8.88498 20.9077C8.66699 20.4799 8.66699 19.9199 8.66699 18.7998V11.1998Z" stroke="#303036" stroke-width="2" stroke-linecap="round" stroke-linejoin="round"/>
</svg>
