<svg width="24" height="24" viewBox="0 0 24 24" fill="none" xmlns="http://www.w3.org/2000/svg">
<path d="M12.0002 1.99988V2.99988M3.00024 11.9999H2.00024M5.50024 5.49988L4.90015 4.89978M18.5002 5.49988L19.1005 4.89978M22.0002 11.9999H21.0002M10.0002 13.4999H14.0002M12.0002 13.4999V18.4999M15.5002 16.8738C17.0143 15.7847 18.0002 14.0074 18.0002 11.9999C18.0002 8.68617 15.314 5.99988 12.0002 5.99988C8.68654 5.99988 6.00024 8.68617 6.00024 11.9999C6.00024 14.0074 6.98618 15.7847 8.50024 16.8738V18.7999C8.50024 19.92 8.50024 20.48 8.71823 20.9079C8.90998 21.2842 9.21594 21.5901 9.59226 21.7819C10.0201 21.9999 10.5801 21.9999 11.7002 21.9999H12.3002C13.4203 21.9999 13.9804 21.9999 14.4082 21.7819C14.7845 21.5901 15.0905 21.2842 15.2823 20.9079C15.5002 20.48 15.5002 19.92 15.5002 18.7999V16.8738Z" stroke="#303036" stroke-width="2" stroke-linecap="round" stroke-linejoin="round"/>
</svg>
