<svg width="28" height="28" viewBox="0 0 28 28" fill="none" xmlns="http://www.w3.org/2000/svg">
<path d="M14.0007 17.4997C15.9336 17.4997 17.5007 15.9327 17.5007 13.9997C17.5007 12.0667 15.9336 10.4997 14.0007 10.4997C12.0677 10.4997 10.5007 12.0667 10.5007 13.9997C10.5007 15.9327 12.0677 17.4997 14.0007 17.4997Z" stroke="#14B855" stroke-width="2.33333" stroke-linecap="round" stroke-linejoin="round"/>
<path d="M21.8491 17.1815C21.708 17.5014 21.6658 17.8562 21.7282 18.2003C21.7906 18.5444 21.9546 18.8618 22.1991 19.1118L22.2628 19.1754C22.46 19.3724 22.6165 19.6064 22.7232 19.8639C22.83 20.1214 22.8849 20.3974 22.8849 20.6762C22.8849 20.955 22.83 21.231 22.7232 21.4885C22.6165 21.746 22.46 21.9799 22.2628 22.1769C22.0658 22.3742 21.8318 22.5306 21.5743 22.6374C21.3168 22.7441 21.0408 22.7991 20.762 22.7991C20.4833 22.7991 20.2072 22.7441 19.9497 22.6374C19.6922 22.5306 19.4583 22.3742 19.2613 22.1769L19.1976 22.1133C18.9477 21.8688 18.6302 21.7048 18.2861 21.6424C17.9421 21.58 17.5872 21.6221 17.2673 21.7633C16.9536 21.8978 16.6861 22.121 16.4976 22.4055C16.3092 22.6901 16.2081 23.0235 16.2067 23.3648V23.5451C16.2067 24.1077 15.9832 24.6472 15.5854 25.0451C15.1876 25.4429 14.6481 25.6663 14.0855 25.6663C13.5229 25.6663 12.9834 25.4429 12.5856 25.0451C12.1878 24.6472 11.9643 24.1077 11.9643 23.5451V23.4497C11.9561 23.0986 11.8424 22.7582 11.6382 22.4725C11.4339 22.1869 11.1484 21.9694 10.8188 21.8482C10.4989 21.707 10.1441 21.6649 9.80003 21.7272C9.45597 21.7896 9.13849 21.9537 8.88853 22.1982L8.82489 22.2618C8.62789 22.459 8.39395 22.6155 8.13643 22.7222C7.87892 22.829 7.6029 22.8839 7.32414 22.8839C7.04538 22.8839 6.76935 22.829 6.51184 22.7222C6.25433 22.6155 6.02038 22.459 5.82338 22.2618C5.62616 22.0648 5.4697 21.8308 5.36295 21.5733C5.2562 21.3158 5.20126 21.0398 5.20126 20.761C5.20126 20.4823 5.2562 20.2063 5.36295 19.9487C5.4697 19.6912 5.62616 19.4573 5.82338 19.2603L5.88701 19.1966C6.13152 18.9467 6.29555 18.6292 6.35793 18.2851C6.42031 17.9411 6.3782 17.5862 6.23701 17.2663C6.10257 16.9526 5.87933 16.6851 5.59478 16.4967C5.31023 16.3082 4.97679 16.2071 4.6355 16.2057H4.4552C3.89262 16.2057 3.35308 15.9823 2.95527 15.5844C2.55747 15.1866 2.33398 14.6471 2.33398 14.0845C2.33398 13.5219 2.55747 12.9824 2.95527 12.5846C3.35308 12.1868 3.89262 11.9633 4.4552 11.9633H4.55065C4.90171 11.9551 5.24217 11.8415 5.52779 11.6372C5.8134 11.4329 6.03096 11.1474 6.15217 10.8179C6.29335 10.498 6.33546 10.1431 6.27308 9.79905C6.2107 9.455 6.04668 9.13752 5.80217 8.88755L5.73853 8.82392C5.54131 8.62691 5.38485 8.39297 5.2781 8.13546C5.17135 7.87795 5.11641 7.60192 5.11641 7.32316C5.11641 7.0444 5.17135 6.76837 5.2781 6.51086C5.38485 6.25335 5.54131 6.01941 5.73853 5.8224C5.93553 5.62518 6.16948 5.46872 6.42699 5.36197C6.6845 5.25522 6.96053 5.20028 7.23929 5.20028C7.51805 5.20028 7.79407 5.25522 8.05159 5.36197C8.3091 5.46872 8.54304 5.62518 8.74005 5.8224L8.80368 5.88604C9.05364 6.13055 9.37112 6.29457 9.71518 6.35695C10.0592 6.41934 10.4141 6.37722 10.734 6.23604H10.8188C11.1325 6.10159 11.4001 5.87835 11.5885 5.5938C11.777 5.30925 11.8781 4.97581 11.8794 4.63452V4.45422C11.8794 3.89164 12.1029 3.3521 12.5007 2.9543C12.8985 2.55649 13.4381 2.33301 14.0007 2.33301C14.5632 2.33301 15.1028 2.55649 15.5006 2.9543C15.8984 3.3521 16.1219 3.89164 16.1219 4.45422V4.54967C16.1232 4.89096 16.2244 5.22441 16.4128 5.50896C16.6012 5.79351 16.8688 6.01674 17.1825 6.15119C17.5024 6.29237 17.8572 6.33449 18.2013 6.2721C18.5453 6.20972 18.8628 6.0457 19.1128 5.80119L19.1764 5.73755C19.3734 5.54033 19.6074 5.38387 19.8649 5.27712C20.1224 5.17038 20.3984 5.11543 20.6772 5.11543C20.9559 5.11543 21.232 5.17038 21.4895 5.27712C21.747 5.38387 21.9809 5.54033 22.1779 5.73755C22.3751 5.93456 22.5316 6.1685 22.6384 6.42601C22.7451 6.68352 22.8 6.95955 22.8 7.23831C22.8 7.51707 22.7451 7.7931 22.6384 8.05061C22.5316 8.30812 22.3751 8.54207 22.1779 8.73907L22.1143 8.80271C21.8698 9.05267 21.7058 9.37015 21.6434 9.7142C21.581 10.0583 21.6231 10.4131 21.7643 10.733V10.8179C21.8987 11.1316 22.122 11.3991 22.4065 11.5875C22.6911 11.776 23.0245 11.8771 23.3658 11.8785H23.5461C24.1087 11.8785 24.6482 12.1019 25.046 12.4998C25.4438 12.8976 25.6673 13.4371 25.6673 13.9997C25.6673 14.5623 25.4438 15.1018 25.046 15.4996C24.6482 15.8974 24.1087 16.1209 23.5461 16.1209H23.4507C23.1094 16.1222 22.7759 16.2234 22.4914 16.4118C22.2068 16.6003 21.9836 16.8678 21.8491 17.1815Z" stroke="#14B855" stroke-width="2.33333" stroke-linecap="round" stroke-linejoin="round"/>
</svg>
